<?xml version="1.0" encoding="UTF-8"?>
<svg version="1.1" xmlns="http://www.w3.org/2000/svg" width="300" height="318">
<path d="M0 0 C0.99 0.33 1.98 0.66 3 1 C3.15855469 1.94359375 3.31710938 2.8871875 3.48046875 3.859375 C5.04342819 12.45996949 7.17589681 20.07786072 11 28 C11.41894531 28.90105469 11.83789062 29.80210938 12.26953125 30.73046875 C21.17488101 48.51550444 37.47109863 62.94300135 56.2421875 69.578125 C62.06485746 71.4910235 67.89949056 73.25315928 74 74 C75.94712891 74.309375 75.94712891 74.309375 77.93359375 74.625 C80.74571711 74.5822199 81.72299633 74.24982623 83.83642578 72.34375 C85.7201296 69.97071142 87.4041027 67.53548851 89.0625 65 C90.21641657 63.31001195 91.37395111 61.62248834 92.53515625 59.9375 C93.38811279 58.69444092 93.38811279 58.69444092 94.25830078 57.42626953 C100.16745554 49.19453699 106.91475768 42.64076554 116.3125 38.5625 C130.767261 36.35753646 140.91072036 39.30858331 153 47 C154.51149869 47.91149499 156.03212521 48.80806587 157.5625 49.6875 C158.20316406 50.06261719 158.84382812 50.43773437 159.50390625 50.82421875 C167.05330566 54.38035212 174.56392962 55.70325499 182.8125 56.625 C184.31780273 56.80675781 184.31780273 56.80675781 185.85351562 56.9921875 C192.88993618 57.82372339 199.93627745 58.4519864 207 59 C206 61 206 61 203.06347656 62.12573242 C201.75801479 62.54245801 200.45018994 62.95182249 199.140625 63.35546875 C197.69913283 63.81809175 196.25772968 64.28099219 194.81640625 64.74414062 C192.55400381 65.46148182 190.29048973 66.17486084 188.02490234 66.88208008 C167.34556477 73.3353941 167.34556477 73.3353941 152 88 C149.10361914 93.63774288 148.57018833 98.10735504 148.59375 104.39453125 C148.5740226 106.24316545 148.55416069 108.09179821 148.53417969 109.94042969 C148.52914429 110.89961304 148.52410889 111.85879639 148.5189209 112.8470459 C148.35307721 138.83956671 146.10755532 163.6668422 140 189 C139.80680176 189.8029248 139.61360352 190.60584961 139.41455078 191.43310547 C131.42241874 223.60126484 109.97290031 247.12104831 82 264 C76.80465505 266.95856474 71.42602779 269.49799187 66 272 C65.10071777 272.42087891 64.20143555 272.84175781 63.27490234 273.27539062 C60.33322401 274.65102746 57.38671028 276.01559076 54.4375 277.375 C53.50905273 277.80441895 52.58060547 278.23383789 51.62402344 278.67626953 C46.8011913 280.86711324 42.14193342 282.71628 37 284 C38.37461605 280.89637137 39.9381003 278.84290958 42.37890625 276.49609375 C43.04849365 275.84358643 43.71808105 275.1910791 44.40795898 274.51879883 C45.11895752 273.83197021 45.82995605 273.1451416 46.5625 272.4375 C61.11359481 258.11252943 79.10839156 239.80833193 79.3125 218.25 C79.32497755 212.08539918 79.07694708 206.87998211 75 202 C73.08086025 200.18851931 71.09289497 198.61723702 69 197 C69 196.34 69 195.68 69 195 C70.96875 193.4921875 70.96875 193.4921875 73.5 191.875 C74.3353125 191.33617187 75.170625 190.79734375 76.03125 190.2421875 C76.6809375 189.83226562 77.330625 189.42234375 78 189 C77.45980225 189.14002441 76.91960449 189.28004883 76.36303711 189.42431641 C46.17941858 196.75707821 5.25095862 187.02993267 -21.421875 171.6171875 C-40.29267873 159.78004698 -51.76824348 145.85612244 -57.75 124.296875 C-60.7009997 110.93540415 -59.53619677 97.09234756 -56 84 C-52.65160552 87.21538399 -49.83339716 90.43990808 -47.1875 94.25 C-32.48939704 114.71745178 -11.98047873 126.92379316 12 134 C12.99 134 13.98 134 15 134 C13.98421875 133.45472656 12.9684375 132.90945312 11.921875 132.34765625 C-0.98886414 125.31746114 -12.38345187 117.25727409 -23 107 C-23.71027344 106.31550781 -24.42054687 105.63101563 -25.15234375 104.92578125 C-34.60405011 95.11124547 -40.0297484 82.77730893 -39.98828125 69.1484375 C-39.22044572 45.71832573 -28.9308908 26.26931526 -12.12109375 10.2578125 C-9.4445678 7.79868746 -6.75811061 5.36719729 -4 3 C-2.94232422 2.08541016 -2.94232422 2.08541016 -1.86328125 1.15234375 C-1.24839844 0.77207031 -0.63351563 0.39179687 0 0 Z " fill="#430AF2" transform="translate(59,32)"/>
<path d="M0 0 C1.02734375 2.07861328 1.02734375 2.07861328 1.9375 4.8203125 C2.27386475 5.82368652 2.61022949 6.82706055 2.95678711 7.86083984 C3.30104736 8.9380127 3.64530762 10.01518555 4 11.125 C4.53282593 12.76202881 4.53282593 12.76202881 5.07641602 14.43212891 C17.17434454 52.39004615 13.78581956 93.83222453 -4.1237793 129.46264648 C-11.28843504 143.21884763 -20.26052078 154.87253381 -31 166 C-31.78890625 166.85207031 -32.5778125 167.70414063 -33.390625 168.58203125 C-57.74986013 194.19149202 -94.84633646 209.74622931 -129.96777344 211.11572266 C-135.9831349 211.23517527 -141.98624074 211.16451013 -148 211 C-148 210.34 -148 209.68 -148 209 C-145.58972414 207.40020586 -143.17580259 205.90674629 -140.6875 204.4375 C-132.75176217 199.62427952 -125.29866556 194.46875664 -118.828125 187.7421875 C-117 186 -117 186 -115 186 C-114.73574219 185.40703125 -114.47148437 184.8140625 -114.19921875 184.203125 C-110.72106774 177.81329709 -104.14655327 174.38973972 -97.875 171.1875 C-66.54221088 155.13374953 -43.74232139 126.91192144 -32.94750977 93.59082031 C-24.96005797 67.81402453 -24.35358212 39.99342737 -32.44921875 14.12890625 C-33 12 -33 12 -33 8 C-28.78583026 6.68879825 -24.56834777 5.38906097 -20.34741211 4.09985352 C-18.91187485 3.65963507 -17.47729165 3.21629287 -16.04370117 2.76977539 C-13.98338528 2.12864559 -11.91990414 1.4988127 -9.85546875 0.87109375 C-7.99378052 0.29766235 -7.99378052 0.29766235 -6.09448242 -0.28735352 C-3 -1 -3 -1 0 0 Z " fill="#5805F2" transform="translate(288,92)"/>
<path d="M0 0 C0.64598145 0.31340332 1.29196289 0.62680664 1.95751953 0.94970703 C15.14943971 7.43845597 26.32868232 15.88530843 37 26 C37.74419189 26.68739258 37.74419189 26.68739258 38.50341797 27.38867188 C51.74187818 39.6614457 61.47378569 53.62527974 69 70 C64.71313604 69.8809736 60.42646544 69.75668075 56.13989258 69.62768555 C54.6842047 69.58460067 53.22847483 69.54290925 51.77270508 69.50268555 C49.66995639 69.44433589 47.56741394 69.38083484 45.46484375 69.31640625 C44.202771 69.27974854 42.94069824 69.24309082 41.64038086 69.20532227 C38.02619835 69.00147762 34.55529548 68.68692538 31 68 C29.35546875 65.98828125 29.35546875 65.98828125 28.1875 63.3125 C14.02920602 34.4355574 -13.60453913 12.38279307 -43.64160156 1.75830078 C-68.97003499 -6.38560338 -98.03506516 -8.91918666 -123.6953125 -0.8359375 C-126.77838744 -0.05605802 -128.11340713 0.15463715 -131 -1 C-89.47989591 -20.42500046 -41.20874746 -20.11119774 0 0 Z " fill="#6A02F1" transform="translate(216,17)"/>
<path d="M0 0 C0.66 0 1.32 0 2 0 C3.5273131 1.88632295 4.95564729 3.78482735 6.375 5.75 C27.00578961 33.2652641 57.80007157 49.89885002 91.51171875 55.51171875 C95.99947455 56.13990405 100.47887319 56.68482529 105 57 C103.49853841 62.04605129 100.43322694 65.10979749 96.875 68.8125 C96.31167969 69.40998047 95.74835938 70.00746094 95.16796875 70.62304688 C93.7850002 72.08805594 92.39335215 73.54486312 91 75 C65.73772051 68.71958172 44.54195796 54.56501724 26.3671875 36.36328125 C25.04491381 35.04318953 23.71002554 33.73447304 22.33203125 32.47265625 C13.03873296 23.84828431 5.89435121 12.14461768 0 1 C0 0.67 0 0.34 0 0 Z " fill="#1A16F4" transform="translate(16,222)"/>
</svg>
