<?xml version="1.0" standalone="no"?><!DOCTYPE svg PUBLIC "-//W3C//DTD SVG 1.1//EN" "http://www.w3.org/Graphics/SVG/1.1/DTD/svg11.dtd"><svg t="1756263841665" class="icon" viewBox="0 0 1024 1024" version="1.1" xmlns="http://www.w3.org/2000/svg" p-id="11471" xmlns:xlink="http://www.w3.org/1999/xlink" width="200" height="200"><path d="M512 51.411862L137.710345 169.489655l1.977379 443.215448V621.462069a309.036138 309.036138 0 0 0 88.134621 148.303448c53.671724 52.25931 175.704276 115.817931 234.460689 146.326069l6.497104 3.389793 39.547586 21.186207 29.943173-15.254069c31.638069-15.254069 192.935724-94.631724 255.646896-155.648a295.476966 295.476966 0 0 0 88.699586-154.800551L886.007172 169.489655 512 51.411862z" fill="#0EBE7A" p-id="11472"></path><path d="M512 25.423448l395.475862 124.009931L904.933517 621.462069A315.250759 315.250759 0 0 1 812.279172 784.737103c-66.383448 64.406069-238.980414 149.715862-273.160827 166.099863l-28.248276 14.689103-39.547586-20.903724-7.062069-3.672276c-62.42869-32.768-192.935724-100.281379-250.279724-156.212966a324.290207 324.290207 0 0 1-92.654345-155.365517v-8.474483L116.806621 149.433379 512 25.423448m0-7.344551L109.744552 144.34869 111.721931 621.462069v9.321931A333.047172 333.047172 0 0 0 207.766069 790.951724c56.496552 56.496552 188.698483 124.574897 251.974621 157.342897l7.062069 3.672276 42.654896 22.59862 31.920552-16.384c34.180414-16.384 207.624828-101.693793 274.855724-167.229793a320.900414 320.900414 0 0 0 95.761655-166.382345l2.259862-480.220689L512 18.078897z" fill="#0EBE7A" p-id="11473"></path><path d="M346.747586 388.13131a84.744828 84.744828 0 0 1-10.169379 42.372414 70.903172 70.903172 0 0 1-28.248276 28.248276 89.829517 89.829517 0 0 1-42.654897 9.886897H219.065379v91.524413H177.822897v-254.234482h87.287172a86.722207 86.722207 0 0 1 42.654897 10.169379 71.185655 71.185655 0 0 1 28.248275 28.248276 87.287172 87.287172 0 0 1 10.734345 43.784827z m-41.242483 0a48.304552 48.304552 0 0 0-12.711724-35.87531A48.869517 48.869517 0 0 0 256.635586 338.97931H219.065379v96.891587h37.570207A49.152 49.152 0 0 0 292.793379 423.724138a48.022069 48.022069 0 0 0 12.711724-35.592828zM456.633379 437.000828L398.159448 593.213793h-25.705931l18.926345-40.395034-45.479724-116.947862h26.553379l30.225655 93.501793 28.248276-93.501793z" fill="#FFFFFF" p-id="11474"></path><path d="M496.463448 455.927172v63.558621a13.559172 13.559172 0 0 0 15.254069 15.254069 32.485517 32.485517 0 0 0 11.299311-1.412414v18.36138a44.349793 44.349793 0 0 1-16.384 2.824827 31.355586 31.355586 0 0 1-33.332966-33.897931v-64.688552h-16.948965v-18.926344h16.948965v-28.248276h23.446069v28.248276h26.553379v18.926344zM634.032552 476.265931v75.705379h-23.163586V480.22069c0-17.231448-8.192-25.705931-24.293518-25.705931a28.248276 28.248276 0 0 0-21.751172 9.321931 35.592828 35.592828 0 0 0-7.909517 24.576v63.841103h-23.446069v-162.710069H558.04469V451.972414a44.06731 44.06731 0 0 1 37.852689-17.513931 38.135172 38.135172 0 0 1 28.248276 10.734345 42.372414 42.372414 0 0 1 9.886897 31.073103zM699.286069 434.740966a53.954207 53.954207 0 0 1 28.248276 7.344551 53.106759 53.106759 0 0 1 18.926345 21.186207 70.055724 70.055724 0 0 1 6.779586 31.355586 69.208276 69.208276 0 0 1-6.779586 31.355587 52.25931 52.25931 0 0 1-18.926345 20.903724 54.519172 54.519172 0 0 1-56.496552 0 52.824276 52.824276 0 0 1-19.208827-20.903724 69.208276 69.208276 0 0 1-6.779587-31.355587 70.055724 70.055724 0 0 1 6.779587-31.355586 53.671724 53.671724 0 0 1 19.208827-21.186207 54.23669 54.23669 0 0 1 28.248276-7.344551z m0 18.643862a25.140966 25.140966 0 0 0-15.819035 5.084689 31.355586 31.355586 0 0 0-10.734344 14.406621 58.473931 58.473931 0 0 0-3.954759 21.751172 56.496552 56.496552 0 0 0 3.954759 21.46869 31.355586 31.355586 0 0 0 10.734344 14.406621 25.705931 25.705931 0 0 0 31.355587 0 33.332966 33.332966 0 0 0 10.734345-14.406621 56.496552 56.496552 0 0 0 3.672275-21.46869 58.473931 58.473931 0 0 0-3.672275-21.751172 33.332966 33.332966 0 0 0-10.734345-14.406621 25.140966 25.140966 0 0 0-15.536552-5.084689zM864.820966 476.265931v75.705379H840.527448V480.22069c0-17.231448-7.909517-25.705931-24.011034-25.705931a28.248276 28.248276 0 0 0-21.751173 9.321931 35.87531 35.87531 0 0 0-8.192 24.576v63.841103h-22.316138v-88.699586-26.553379h19.773794a157.625379 157.625379 0 0 1 0 18.926344 43.784828 43.784828 0 0 1 40.395034-21.186206 38.982621 38.982621 0 0 1 28.248276 10.734344 43.502345 43.502345 0 0 1 12.146759 30.790621z" fill="#FFFFFF" p-id="11475"></path></svg>