<?xml version="1.0" standalone="no"?><!DOCTYPE svg PUBLIC "-//W3C//DTD SVG 1.1//EN" "http://www.w3.org/Graphics/SVG/1.1/DTD/svg11.dtd"><svg t="1749976814482" class="icon" viewBox="0 0 1024 1024" version="1.1" xmlns="http://www.w3.org/2000/svg" p-id="6150" xmlns:xlink="http://www.w3.org/1999/xlink" width="200" height="200"><path d="M537.400889 279.096889s10.695111 12.828444 14.620444 13.966222c3.925333 1.137778 20.679111 9.557333 21.76 0 1.080889-9.557333 3.214222-8.618667 7.480889-18.261333 4.266667-9.614222 22.471111-5.347556 22.471111-5.347556-5.575111 2.304-5.006222 4.096-1.564444 5.461334l0.483555 18.119111s-1.336889 21.333333-9.756444 22.385777c-8.419556 1.080889-23.409778-8.561778-23.409778 0s2.133333 17.834667 5.347556 18.545778c3.214222 0.711111 20.309333-3.925333 24.604444 0 4.266667 3.925333 12.828444 9.272889 10.695111 14.620445-2.133333 5.347556-0.398222 14.961778 0.341334 18.176 0.739556 3.214222 9.301333 6.627556 14.648889 8.135111 5.347556 1.507556 9.614222 11.349333 10.695111 0 1.080889-11.349333-2.133333-30.577778 0-32.739556 2.133333-2.133333-5.973333-13.909333 0.227555-16.042666 6.200889-2.133333 8.334222-14.961778 12.600889-13.909334l-4.266667-1.080889 4.266667-6.428444s-1.080889-0.455111-5.347555-7.196445c-3.527111-5.546667-8.533333-14.535111-10.154667-17.493333 2.787556 0.824889 15.502222-12.743111 15.502222-12.743111-57.742222-34.218667-80.213333-26.737778-86.641778-33.166222-6.428444-6.428444-24.860444 4.266667-24.860444 4.266666v15.075556l5.603555 12.828444s-2.133333 5.347556-5.347555 12.828445zM655.047111 611.726222l-9.614222-2.133333c-9.614222-2.133333-37.432889 6.058667-37.432889 6.058667l-21.390222 4.664888-12.828445-8.561777c-76.999111-34.218667-126.208 19.256889-126.208 19.256889s-54.556444-23.523556-63.118222-30.691556c-8.561778-7.168-32.085333 0-32.085333 0-14.933333 2.929778-6.428444-25.998222-1.962667-38.826667 4.437333-12.828444 18.005333-4.266667 34.048-3.214222 16.042667 1.080889 19.256889-2.133333 23.523556-11.776 4.266667-9.614222 4.266667-25.656889 2.133333-36.124444s25.656889-43.008 35.072-45.169778c9.386667-2.133333 5.575111-35.299556 2.360889-50.261333-3.214222-14.961778-3.214222-9.614222-25.656889-9.614223s-14.961778-12.828444-19.256889-19.256889c-4.266667-6.428444-14.961778-12.828444-24.604444-17.123555-9.614222-4.266667-9.614222-1.080889-14.961778-1.080889s-9.614222 6.428444-14.449778 11.776c-4.807111 5.347556-36.892444 7.480889-48.668444 6.428444-11.776-1.080889-23.523556-37.432889-26.737778-37.432888-3.214222 0-23.523556 42.780444-23.523556 42.780444s8.561778 20.309333 8.021334 25.685333c-0.512 5.347556 9.073778 45.994667 8.021333 52.394667-1.080889 6.428444-1.080889 35.299556-7.480889 45.994667-6.428444 10.695111 48.128 73.813333 48.128 73.813333l33.166222 30.663111c19.256889 2.844444 24.604444 15.331556 47.047111 9.984 19.484444-4.636444 51.000889 8.419556 59.050667 11.975111 0.369778 4.494222 0.967111 10.979556 1.934222 20.138667 5.347556 51.342222 32.085333 54.556444 32.085334 54.556444s62.037333 14.961778 58.823111 23.523556c-3.214222 8.561778 10.695111 41.728 22.471111 42.780444 11.776 1.080889 11.776-12.828444 21.390222-20.309333 9.614222-7.480889 22.471111-27.818667 33.166222-38.513778 10.695111-10.695111 31.032889-49.208889 39.566223-71.651555 8.561778-22.471111 0-44.913778 0-44.913778v4.181333zM391.936 348.615111c4.266667 2.133333 25.685333-3.214222 33.820444-5.347555 8.135111-2.133333 17.521778 4.266667 19.427556 10.695111 1.905778 6.428444 19.484444 24.604444 21.617778 20.309333 2.133333-4.266667 10.695111-7.480889 14.961778-16.042667 4.266667-8.561778-3.214222-10.695111-5.347556-20.309333-2.133333-9.614222 5.347556-22.414222 5.347556-22.414222s-12.828444-5.376-14.961778-16.071111c-2.133333-10.695111-21.617778-5.347556-20.309334-2.133334l-1.308444-3.214222c-1.308444-3.214222-23.296 19.256889-23.296 19.256889s-9.614222 13.909333-24.604444 7.480889c-14.961778-6.428444-27.050667 14.677333-28.871112 17.123555-5.006222 6.656 19.256889 8.533333 23.523556 10.666667zM686.08 302.620444s4.266667 35.299556 12.828444 38.513778c8.561778 3.214222-56.689778 30.179556-50.261333 33.792 0 0-4.266667 42.126222 0 52.821334 4.266667 10.695111 10.808889 33.166222 10.211556 37.432888-0.597333 4.266667 20.792889 22.471111 21.873777 25.656889 1.080889 3.214222 17.123556 17.578667 21.390223 19.484445 4.266667 1.905778 18.176-4.522667 23.523555-14.677334 5.347556-10.154667 4.266667-18.716444 9.614222-19.797333 5.347556-1.080889 8.561778-12.828444 14.961778-4.266667 6.428444 8.561778 16.042667 4.266667 16.042667 17.123556 0 12.828444 7.480889 11.832889 7.480889 21.959111 0 10.126222 6.428444 19.740444 6.428444 19.740445l7.480889-32.085334V461.937778s-39.338667-127.288889-70.485333-143.331556l-31.089778-15.985778z" fill="#5192FF" p-id="6151"></path><path d="M512 0C229.233778 0 0 229.233778 0 512s229.233778 512 512 512 512-229.233778 512-512S794.766222 0 512 0z m0 806.4c-162.588444 0-294.4-131.811556-294.4-294.4 0-162.588444 131.811556-294.4 294.4-294.4 162.588444 0 294.4 131.811556 294.4 294.4 0 162.588444-131.811556 294.4-294.4 294.4z" fill="#5192FF" p-id="6152"></path></svg>